# xmcd
#
# Track frame offsets:
#	150
#	11726
#	25456
#	36767
#	49103
#	60863
#	73673
#	85115
#	98228
#	110174
#	123178
#	134463
#	145741
#	157537
#	169450
#	182687
#	194927
#	207422
#	220317
#	232919
#	245602
#	257228
#	268088
#	280566
#	293773
#
# Disc length: 4094 seconds
#
# Revision: 1
# Processed by: cddbd v1.5.1PL2 Copyright (c) Steve Scherf et al.
# Submitted via: audiograbber 1.83.01
#
DISCID=750ffc19
DTITLE=Ivory Joe Hunter - The King Sides
DYEAR=1900
DGENRE=R&B
TTITLE0=San Franscisco Blues
TTITLE1=I was Only Playin'
TTITLE2=Don't be No Fool, Fool
TTITLE3=Come On Let Your Hair Down
TTITLE4=All States Boogie
TTITLE5=The Code Song
TTITLE6=She's Gone Blues
TTITLE7=No Money, No L;uck Blues
TTITLE8=Woo Wee Blues
TTITLE9=Landlord Blues
TTITLE10=Old Gal and New Gal Blues
TTITLE11=Don't Know
TTITLE12=I Like It
TTITLE13=False Friend Blues
TTITLE14=Send Me Pretty Mama
TTITLE15=What Did You do to Me
TTITLE16=Stop Rockin' That Train
TTITLE17=Siesta With Sonny
TTITLE18=That's The Gal for Me
TTITLE19=Changing Blues
TTITLE20=Too Late
TTITLE21=I Got Your Water On
TTITLE22=I Quit My Pretty Mama
TTITLE23=Lying Woman Blues
TTITLE24=I Have No Reason to Complain
EXTD=
EXTT0=
EXTT1=
EXTT2=
EXTT3=
EXTT4=
EXTT5=
EXTT6=
EXTT7=
EXTT8=
EXTT9=
EXTT10=
EXTT11=
EXTT12=
EXTT13=
EXTT14=
EXTT15=
EXTT16=
EXTT17=
EXTT18=
EXTT19=
EXTT20=
EXTT21=
EXTT22=
EXTT23=
EXTT24=
PLAYORDER=
